{
    "asset" : {
        "generator" : "Khronos glTF Blender I/O v1.0.5",
        "version" : "2.0"
    },
    "scene" : 0,
    "scenes" : [
        {
            "name" : "Scene",
            "nodes" : [
                0,
                1,
                2,
                3,
                4,
                5,
                6,
                7,
                8,
                9,
                10,
                11,
                12,
                13,
                14,
                15,
                16,
                17,
                18,
                19,
                20,
                21,
                22,
                23,
                24,
                25
            ]
        }
    ],
    "nodes" : [
        {
            "name" : "Light",
            "rotation" : [
                0.16907575726509094,
                0.7558803558349609,
                -0.27217137813568115,
                0.570947527885437
            ],
            "translation" : [
                -3.3006362915039062,
                0.5512029528617859,
                3.2648563385009766
            ]
        },
        {
            "name" : "Camera",
            "rotation" : [
                0.4922364056110382,
                -0.5173857808113098,
                0.4844263195991516,
                0.5053181052207947
            ],
            "translation" : [
                -6.134783744812012,
                1.2173731327056885,
                -0.0024768710136413574
            ]
        },
        {
            "mesh" : 0,
            "name" : "Sphere",
            "scale" : [
                0.4375638961791992,
                1.2710210084915161,
                0.46921321749687195
            ],
            "translation" : [
                0,
                0.9267198443412781,
                -0.051045455038547516
            ]
        },
        {
            "name" : "right_foot",
            "scale" : [
                -0.08694332838058472,
                0.045896947383880615,
                0.055960513651371
            ],
            "translation" : [
                -0.11248423159122467,
                -0.06964363157749176,
                0.13393396139144897
            ]
        },
        {
            "name" : "right_leg",
            "rotation" : [
                -0.13459816575050354,
                0.08944977074861526,
                -0.7112008333206177,
                0.6841604113578796
            ],
            "scale" : [
                -0.08694332838058472,
                0.045896947383880615,
                0.055960513651371
            ],
            "translation" : [
                -0.034059397876262665,
                0.08630989491939545,
                0.1300797462463379
            ]
        },
        {
            "name" : "left_foot",
            "scale" : [
                -0.08694332838058472,
                0.045896947383880615,
                0.055960513651371
            ],
            "translation" : [
                -0.14748132228851318,
                -0.06964363157749176,
                -0.18982675671577454
            ]
        },
        {
            "name" : "left_leg",
            "rotation" : [
                -0.1110154464840889,
                0.10808247327804565,
                -0.7224681973457336,
                0.6738200783729553
            ],
            "scale" : [
                -0.08694332838058472,
                0.045896947383880615,
                0.055960513651371
            ],
            "translation" : [
                -0.034059397876262665,
                0.08630989491939545,
                -0.18435829877853394
            ]
        },
        {
            "name" : "right_hand",
            "rotation" : [
                -0.2760762870311737,
                -0.020729094743728638,
                -0.7266504764556885,
                0.6287537217140198
            ],
            "scale" : [
                -0.08694332838058472,
                0.045896947383880615,
                0.055960513651371
            ],
            "translation" : [
                -0.034059397876262665,
                0.8596612811088562,
                0.4406237006187439
            ]
        },
        {
            "name" : "left_hand",
            "rotation" : [
                0.02606920339167118,
                0.3234656751155853,
                -0.6724919080734253,
                0.665165364742279
            ],
            "scale" : [
                -0.08694332838058472,
                0.045896947383880615,
                0.055960513651371
            ],
            "translation" : [
                -0.034059397876262665,
                0.8596612811088562,
                -0.5382504463195801
            ]
        },
        {
            "name" : "left_weapon",
            "rotation" : [
                -0.2760762870311737,
                -0.020729094743728638,
                -0.7266504764556885,
                0.6287537217140198
            ],
            "scale" : [
                -0.05568878725171089,
                0.018307533115148544,
                0.01418258436024189
            ],
            "translation" : [
                -0.025609459728002548,
                1.9324970245361328,
                -0.23298300802707672
            ]
        },
        {
            "name" : "left_weapon.001",
            "rotation" : [
                -0.37162038683891296,
                -0.2146531492471695,
                -0.7208887338638306,
                0.5441890358924866
            ],
            "scale" : [
                -0.021354345604777336,
                0.010136064141988754,
                0.008404424414038658
            ],
            "translation" : [
                -0.016780484467744827,
                1.9422980546951294,
                -0.265046089887619
            ]
        },
        {
            "name" : "left_weapon.002",
            "rotation" : [
                -0.20022819936275482,
                0.22792655229568481,
                -0.6273207664489746,
                0.7172355055809021
            ],
            "scale" : [
                -0.021354345604777336,
                0.010136064141988754,
                0.008404424414038658
            ],
            "translation" : [
                -0.016780484467744827,
                1.9917854070663452,
                -0.2376665621995926
            ]
        },
        {
            "name" : "right_weapon",
            "rotation" : [
                -0.13826996088027954,
                0.3109592795372009,
                -0.6435979008674622,
                0.6855417490005493
            ],
            "scale" : [
                -0.05568878725171089,
                0.018307533115148544,
                0.01418258436024189
            ],
            "translation" : [
                -0.015215621329843998,
                1.9363933801651,
                0.10405823588371277
            ]
        },
        {
            "name" : "left_weapon.003",
            "rotation" : [
                -0.2749860882759094,
                0.1584853231906891,
                -0.7013832330703735,
                0.6382214426994324
            ],
            "scale" : [
                -0.021354345604777336,
                0.010136064141988754,
                0.008404424414038658
            ],
            "translation" : [
                -0.016780484467744827,
                1.9810843467712402,
                0.09005078673362732
            ]
        },
        {
            "name" : "left_weapon.004",
            "rotation" : [
                -0.2525659501552582,
                0.5883249640464783,
                -0.28110724687576294,
                0.7148866057395935
            ],
            "scale" : [
                -0.021354345604777336,
                0.010136064141988754,
                0.008404424414038658
            ],
            "translation" : [
                -0.016780484467744827,
                1.9858125448226929,
                0.14293807744979858
            ]
        },
        {
            "mesh" : 1,
            "name" : "face",
            "rotation" : [
                0.005276961717754602,
                -0.0008621355518698692,
                -0.14635136723518372,
                0.9892182350158691
            ],
            "scale" : [
                0.03246060386300087,
                0.22741015255451202,
                0.267437219619751
            ],
            "translation" : [
                -0.31492868065834045,
                1.5105844736099243,
                -0.07038944214582443
            ]
        },
        {
            "name" : "NurbsCurve",
            "translation" : [
                -0.9037197828292847,
                0.22108051180839539,
                0.07086717337369919
            ]
        },
        {
            "name" : "Stroke",
            "translation" : [
                -0.9035152196884155,
                0.22341980040073395,
                -0.025414466857910156
            ]
        },
        {
            "name" : "Lines"
        },
        {
            "name" : "Light.001",
            "rotation" : [
                0.16907575726509094,
                0.7558803558349609,
                -0.27217137813568115,
                0.570947527885437
            ],
            "translation" : [
                -3.8042306900024414,
                0.9748224020004272,
                -3.633225679397583
            ]
        },
        {
            "name" : "Light.002",
            "rotation" : [
                0.16907575726509094,
                0.7558803558349609,
                -0.27217137813568115,
                0.570947527885437
            ],
            "translation" : [
                -7.781672477722168,
                0.152856707572937,
                -0.20772743225097656
            ]
        },
        {
            "name" : "BezierCurve",
            "translation" : [
                -0.9035152196884155,
                0.22341980040073395,
                -0.025414466857910156
            ]
        },
        {
            "mesh" : 2,
            "name" : "Torus",
            "rotation" : [
                0,
                0,
                -0.8105708360671997,
                0.5856406092643738
            ],
            "scale" : [
                0.02623085118830204,
                0.03677954524755478,
                0.04460436478257179
            ],
            "translation" : [
                -0.3305218815803528,
                1.5676681995391846,
                -0.19310040771961212
            ]
        },
        {
            "mesh" : 3,
            "name" : "Torus.001",
            "rotation" : [
                0,
                0,
                -0.8105708360671997,
                0.5856406092643738
            ],
            "scale" : [
                0.02623085118830204,
                0.03677954524755478,
                0.04460436478257179
            ],
            "translation" : [
                -0.3305218815803528,
                1.5676681995391846,
                -0.19310040771961212
            ]
        },
        {
            "mesh" : 4,
            "name" : "Torus.002",
            "rotation" : [
                0,
                0,
                -0.8105708360671997,
                0.5856406092643738
            ],
            "scale" : [
                0.02623085118830204,
                0.03677954524755478,
                0.04460436478257179
            ],
            "translation" : [
                -0.3305218815803528,
                1.5676681995391846,
                0.038659609854221344
            ]
        },
        {
            "mesh" : 5,
            "name" : "Torus.003",
            "rotation" : [
                0,
                0,
                0.5385171175003052,
                0.8426145911216736
            ],
            "scale" : [
                0.03562163934111595,
                0.039966460317373276,
                0.060910724103450775
            ],
            "translation" : [
                -0.36796805262565613,
                1.4379786252975464,
                -0.07289312034845352
            ]
        }
    ],
    "materials" : [
        {
            "doubleSided" : true,
            "name" : "Material.001",
            "pbrMetallicRoughness" : {
                "baseColorFactor" : [
                    0.7993376851081848,
                    0.7821030020713806,
                    0.002873464720323682,
                    1
                ],
                "metallicFactor" : 0,
                "roughnessFactor" : 0.5
            }
        },
        {
            "doubleSided" : true,
            "name" : "Material.021",
            "pbrMetallicRoughness" : {
                "baseColorFactor" : [
                    0.7798295617103577,
                    0.7993376851081848,
                    0.49226003885269165,
                    1
                ],
                "metallicFactor" : 0,
                "roughnessFactor" : 0.5
            }
        },
        {
            "doubleSided" : true,
            "name" : "Material.003",
            "pbrMetallicRoughness" : {
                "baseColorFactor" : [
                    0.800000011920929,
                    0.800000011920929,
                    0.800000011920929,
                    1
                ],
                "metallicFactor" : 0,
                "roughnessFactor" : 0.5
            }
        },
        {
            "doubleSided" : true,
            "name" : "Material.008",
            "pbrMetallicRoughness" : {
                "baseColorFactor" : [
                    0.800000011920929,
                    0.800000011920929,
                    0.800000011920929,
                    1
                ],
                "metallicFactor" : 0,
                "roughnessFactor" : 0.5
            }
        },
        {
            "doubleSided" : true,
            "name" : "Material.011",
            "pbrMetallicRoughness" : {
                "baseColorFactor" : [
                    0.800000011920929,
                    0.800000011920929,
                    0.800000011920929,
                    1
                ],
                "metallicFactor" : 0,
                "roughnessFactor" : 0.5
            }
        },
        {
            "doubleSided" : true,
            "name" : "Material.013",
            "pbrMetallicRoughness" : {
                "baseColorFactor" : [
                    0.800000011920929,
                    0.800000011920929,
                    0.800000011920929,
                    1
                ],
                "metallicFactor" : 0,
                "roughnessFactor" : 0.5
            }
        }
    ],
    "meshes" : [
        {
            "name" : "Sphere",
            "primitives" : [
                {
                    "attributes" : {
                        "POSITION" : 0,
                        "NORMAL" : 1,
                        "TEXCOORD_0" : 2
                    },
                    "indices" : 3,
                    "material" : 0
                }
            ]
        },
        {
            "name" : "Sphere.001",
            "primitives" : [
                {
                    "attributes" : {
                        "POSITION" : 4,
                        "NORMAL" : 5,
                        "TEXCOORD_0" : 6
                    },
                    "indices" : 7,
                    "material" : 1
                }
            ]
        },
        {
            "name" : "Torus",
            "primitives" : [
                {
                    "attributes" : {
                        "POSITION" : 8,
                        "NORMAL" : 9,
                        "TEXCOORD_0" : 10
                    },
                    "indices" : 11,
                    "material" : 2
                }
            ]
        },
        {
            "name" : "Torus.001",
            "primitives" : [
                {
                    "attributes" : {
                        "POSITION" : 12,
                        "NORMAL" : 13,
                        "TEXCOORD_0" : 14
                    },
                    "indices" : 15,
                    "material" : 3
                }
            ]
        },
        {
            "name" : "Torus.002",
            "primitives" : [
                {
                    "attributes" : {
                        "POSITION" : 16,
                        "NORMAL" : 17,
                        "TEXCOORD_0" : 18
                    },
                    "indices" : 11,
                    "material" : 4
                }
            ]
        },
        {
            "name" : "Torus.003",
            "primitives" : [
                {
                    "attributes" : {
                        "POSITION" : 19,
                        "NORMAL" : 20,
                        "TEXCOORD_0" : 21
                    },
                    "indices" : 22,
                    "material" : 5
                }
            ]
        }
    ],
    "accessors" : [
        {
            "bufferView" : 0,
            "componentType" : 5126,
            "count" : 1984,
            "max" : [
                1.1239839792251587,
                0.8036519289016724,
                1.1239840984344482
            ],
            "min" : [
                -1.12398362159729,
                -0.6907132267951965,
                -1.1239842176437378
            ],
            "type" : "VEC3"
        },
        {
            "bufferView" : 1,
            "componentType" : 5126,
            "count" : 1984,
            "type" : "VEC3"
        },
        {
            "bufferView" : 2,
            "componentType" : 5126,
            "count" : 1984,
            "type" : "VEC2"
        },
        {
            "bufferView" : 3,
            "componentType" : 5123,
            "count" : 2880,
            "type" : "SCALAR"
        },
        {
            "bufferView" : 4,
            "componentType" : 5126,
            "count" : 1984,
            "max" : [
                1.000000238418579,
                1,
                1.0000003576278687
            ],
            "min" : [
                -0.9999998211860657,
                -1,
                -1
            ],
            "type" : "VEC3"
        },
        {
            "bufferView" : 5,
            "componentType" : 5126,
            "count" : 1984,
            "type" : "VEC3"
        },
        {
            "bufferView" : 6,
            "componentType" : 5126,
            "count" : 1984,
            "type" : "VEC2"
        },
        {
            "bufferView" : 7,
            "componentType" : 5123,
            "count" : 2880,
            "type" : "SCALAR"
        },
        {
            "bufferView" : 8,
            "componentType" : 5126,
            "count" : 1056,
            "max" : [
                -0.09789475053548813,
                0.25,
                1.2393059730529785
            ],
            "min" : [
                -1.25,
                -0.25,
                -1.2393059730529785
            ],
            "type" : "VEC3"
        },
        {
            "bufferView" : 9,
            "componentType" : 5126,
            "count" : 1056,
            "type" : "VEC3"
        },
        {
            "bufferView" : 10,
            "componentType" : 5126,
            "count" : 1056,
            "type" : "VEC2"
        },
        {
            "bufferView" : 11,
            "componentType" : 5123,
            "count" : 1584,
            "type" : "SCALAR"
        },
        {
            "bufferView" : 12,
            "componentType" : 5126,
            "count" : 2304,
            "max" : [
                1.25,
                0.25,
                1.25
            ],
            "min" : [
                -1.25,
                -0.25,
                -1.25
            ],
            "type" : "VEC3"
        },
        {
            "bufferView" : 13,
            "componentType" : 5126,
            "count" : 2304,
            "type" : "VEC3"
        },
        {
            "bufferView" : 14,
            "componentType" : 5126,
            "count" : 2304,
            "type" : "VEC2"
        },
        {
            "bufferView" : 15,
            "componentType" : 5123,
            "count" : 3456,
            "type" : "SCALAR"
        },
        {
            "bufferView" : 16,
            "componentType" : 5126,
            "count" : 1056,
            "max" : [
                -0.09789475053548813,
                0.25,
                1.2393059730529785
            ],
            "min" : [
                -1.25,
                -0.25,
                -1.2393059730529785
            ],
            "type" : "VEC3"
        },
        {
            "bufferView" : 17,
            "componentType" : 5126,
            "count" : 1056,
            "type" : "VEC3"
        },
        {
            "bufferView" : 18,
            "componentType" : 5126,
            "count" : 1056,
            "type" : "VEC2"
        },
        {
            "bufferView" : 19,
            "componentType" : 5126,
            "count" : 1080,
            "max" : [
                9.437237480369731e-08,
                0.25,
                1.25
            ],
            "min" : [
                -1.25,
                -0.25,
                -1.2393059730529785
            ],
            "type" : "VEC3"
        },
        {
            "bufferView" : 20,
            "componentType" : 5126,
            "count" : 1080,
            "type" : "VEC3"
        },
        {
            "bufferView" : 21,
            "componentType" : 5126,
            "count" : 1080,
            "type" : "VEC2"
        },
        {
            "bufferView" : 22,
            "componentType" : 5123,
            "count" : 1620,
            "type" : "SCALAR"
        }
    ],
    "bufferViews" : [
        {
            "buffer" : 0,
            "byteLength" : 23808,
            "byteOffset" : 0
        },
        {
            "buffer" : 0,
            "byteLength" : 23808,
            "byteOffset" : 23808
        },
        {
            "buffer" : 0,
            "byteLength" : 15872,
            "byteOffset" : 47616
        },
        {
            "buffer" : 0,
            "byteLength" : 5760,
            "byteOffset" : 63488
        },
        {
            "buffer" : 0,
            "byteLength" : 23808,
            "byteOffset" : 69248
        },
        {
            "buffer" : 0,
            "byteLength" : 23808,
            "byteOffset" : 93056
        },
        {
            "buffer" : 0,
            "byteLength" : 15872,
            "byteOffset" : 116864
        },
        {
            "buffer" : 0,
            "byteLength" : 5760,
            "byteOffset" : 132736
        },
        {
            "buffer" : 0,
            "byteLength" : 12672,
            "byteOffset" : 138496
        },
        {
            "buffer" : 0,
            "byteLength" : 12672,
            "byteOffset" : 151168
        },
        {
            "buffer" : 0,
            "byteLength" : 8448,
            "byteOffset" : 163840
        },
        {
            "buffer" : 0,
            "byteLength" : 3168,
            "byteOffset" : 172288
        },
        {
            "buffer" : 0,
            "byteLength" : 27648,
            "byteOffset" : 175456
        },
        {
            "buffer" : 0,
            "byteLength" : 27648,
            "byteOffset" : 203104
        },
        {
            "buffer" : 0,
            "byteLength" : 18432,
            "byteOffset" : 230752
        },
        {
            "buffer" : 0,
            "byteLength" : 6912,
            "byteOffset" : 249184
        },
        {
            "buffer" : 0,
            "byteLength" : 12672,
            "byteOffset" : 256096
        },
        {
            "buffer" : 0,
            "byteLength" : 12672,
            "byteOffset" : 268768
        },
        {
            "buffer" : 0,
            "byteLength" : 8448,
            "byteOffset" : 281440
        },
        {
            "buffer" : 0,
            "byteLength" : 12960,
            "byteOffset" : 289888
        },
        {
            "buffer" : 0,
            "byteLength" : 12960,
            "byteOffset" : 302848
        },
        {
            "buffer" : 0,
            "byteLength" : 8640,
            "byteOffset" : 315808
        },
        {
            "buffer" : 0,
            "byteLength" : 3240,
            "byteOffset" : 324448
        }
    ],
    "buffers" : [
        {
            "byteLength" : 327688,
            "uri" : "data:application/octet-stream;base64,"
        }
    ]
}
